<svg width="1440" height="2049" viewBox="0 0 1440 2049" fill="none" xmlns="http://www.w3.org/2000/svg">
<ellipse cx="118.38" cy="47.9504" rx="45.0576" ry="47.9504" fill="white" fill-opacity="0.5"/>
<ellipse cx="118.38" cy="345.243" rx="45.0576" ry="47.9504" fill="white" fill-opacity="0.5"/>
<ellipse cx="118.38" cy="642.536" rx="45.0576" ry="47.9504" fill="white" fill-opacity="0.5"/>
<ellipse cx="118.38" cy="939.829" rx="45.0576" ry="47.9504" fill="white" fill-opacity="0.5"/>
<ellipse cx="118.38" cy="1237.12" rx="45.0576" ry="47.9504" fill="white" fill-opacity="0.5"/>
<ellipse cx="118.38" cy="1534.41" rx="45.0576" ry="47.9504" fill="white" fill-opacity="0.5"/>
<ellipse cx="118.38" cy="1831.71" rx="45.0576" ry="47.9504" fill="white" fill-opacity="0.5"/>
<ellipse cx="370.703" cy="47.9504" rx="45.0576" ry="47.9504" fill="white" fill-opacity="0.5"/>
<ellipse cx="370.703" cy="345.243" rx="45.0576" ry="47.9504" fill="white" fill-opacity="0.5"/>
<ellipse cx="370.703" cy="642.536" rx="45.0576" ry="47.9504" fill="white" fill-opacity="0.5"/>
<ellipse cx="370.703" cy="939.829" rx="45.0576" ry="47.9504" fill="white" fill-opacity="0.5"/>
<ellipse cx="370.703" cy="1237.12" rx="45.0576" ry="47.9504" fill="white" fill-opacity="0.5"/>
<ellipse cx="370.703" cy="1534.41" rx="45.0576" ry="47.9504" fill="white" fill-opacity="0.5"/>
<ellipse cx="370.703" cy="1831.71" rx="45.0576" ry="47.9504" fill="white" fill-opacity="0.5"/>
<ellipse cx="623.026" cy="47.9504" rx="45.0576" ry="47.9504" fill="white" fill-opacity="0.5"/>
<ellipse cx="623.026" cy="345.243" rx="45.0576" ry="47.9504" fill="white" fill-opacity="0.5"/>
<ellipse cx="623.026" cy="642.536" rx="45.0576" ry="47.9504" fill="white" fill-opacity="0.5"/>
<ellipse cx="623.026" cy="939.829" rx="45.0576" ry="47.9504" fill="white" fill-opacity="0.5"/>
<ellipse cx="623.026" cy="1237.12" rx="45.0576" ry="47.9504" fill="white" fill-opacity="0.5"/>
<ellipse cx="623.026" cy="1534.41" rx="45.0576" ry="47.9504" fill="white" fill-opacity="0.5"/>
<ellipse cx="623.026" cy="1831.71" rx="45.0576" ry="47.9504" fill="white" fill-opacity="0.5"/>
<ellipse cx="875.349" cy="47.9504" rx="45.0576" ry="47.9504" fill="white" fill-opacity="0.5"/>
<ellipse cx="875.349" cy="345.243" rx="45.0576" ry="47.9504" fill="white" fill-opacity="0.5"/>
<ellipse cx="875.349" cy="642.536" rx="45.0576" ry="47.9504" fill="white" fill-opacity="0.5"/>
<ellipse cx="875.349" cy="939.829" rx="45.0576" ry="47.9504" fill="white" fill-opacity="0.5"/>
<ellipse cx="875.349" cy="1237.12" rx="45.0576" ry="47.9504" fill="white" fill-opacity="0.5"/>
<ellipse cx="875.349" cy="1534.41" rx="45.0576" ry="47.9504" fill="white" fill-opacity="0.5"/>
<ellipse cx="875.349" cy="1831.71" rx="45.0576" ry="47.9504" fill="white" fill-opacity="0.5"/>
<ellipse cx="1127.67" cy="47.9504" rx="45.0576" ry="47.9504" fill="white" fill-opacity="0.5"/>
<ellipse cx="1127.67" cy="345.243" rx="45.0576" ry="47.9504" fill="white" fill-opacity="0.5"/>
<ellipse cx="1127.67" cy="642.536" rx="45.0576" ry="47.9504" fill="white" fill-opacity="0.5"/>
<ellipse cx="1127.67" cy="939.829" rx="45.0576" ry="47.9504" fill="white" fill-opacity="0.5"/>
<ellipse cx="1127.67" cy="1237.12" rx="45.0576" ry="47.9504" fill="white" fill-opacity="0.5"/>
<ellipse cx="1127.67" cy="1534.41" rx="45.0576" ry="47.9504" fill="white" fill-opacity="0.5"/>
<ellipse cx="1127.67" cy="1831.71" rx="45.0576" ry="47.9504" fill="white" fill-opacity="0.5"/>
<ellipse cx="1379.99" cy="47.9504" rx="45.0576" ry="47.9504" fill="white" fill-opacity="0.5"/>
<ellipse cx="1379.99" cy="345.243" rx="45.0576" ry="47.9504" fill="white" fill-opacity="0.5"/>
<ellipse cx="1379.99" cy="642.536" rx="45.0576" ry="47.9504" fill="white" fill-opacity="0.5"/>
<ellipse cx="1379.99" cy="939.829" rx="45.0576" ry="47.9504" fill="white" fill-opacity="0.5"/>
<ellipse cx="1379.99" cy="1237.12" rx="45.0576" ry="47.9504" fill="white" fill-opacity="0.5"/>
<ellipse cx="1379.99" cy="1534.41" rx="45.0576" ry="47.9504" fill="white" fill-opacity="0.5"/>
<ellipse cx="1379.99" cy="1831.71" rx="45.0576" ry="47.9504" fill="white" fill-opacity="0.5"/>
</svg>
